<svg width="35" height="50" viewBox="0 0 35 50" fill="none" xmlns="http://www.w3.org/2000/svg">
<path d="M15.8164 2.26008H11.8618V15.8843H23.7257V18.4261H11.8618V37.282H18.0744V39.5421H0V37.282H3.38909V2.26008H0V0H24.2336C25.0624 0 25.6732 0.0287908 26.0701 0.0843159C26.4649 0.139841 26.833 0.347546 27.1703 0.705374C27.5096 1.0632 27.6803 1.61845 27.6803 2.37113L26.1544 11.8618H23.9519L22.8208 6.27022C22.4815 4.57568 21.8502 3.48369 20.9288 2.99424C20.0055 2.5048 18.3027 2.26008 15.8164 2.26008Z" fill="white"/>
<path d="M34.7628 46.2217H0V49.9892H34.7628V46.2217Z" fill="white"/>
</svg>
