<svg width="150" height="54" viewBox="0 0 150 54" fill="none" xmlns="http://www.w3.org/2000/svg">
<mask id="mask0_734_14" style="mask-type:luminance" maskUnits="userSpaceOnUse" x="0" y="0" width="150" height="54">
<path d="M150 0H0V53.302H150V0Z" fill="white"/>
</mask>
<g mask="url(#mask0_734_14)">
<path d="M15.8164 2.26008H11.8618V15.8843H23.7257V18.4261H11.8618V37.282H18.0744V39.5421H0V37.282H3.38909V2.26008H0V0H24.2336C25.0624 0 25.6732 0.0287908 26.0701 0.0843159C26.4649 0.139841 26.833 0.347546 27.1703 0.705374C27.5096 1.0632 27.6803 1.61845 27.6803 2.37113L26.1544 11.8618H23.9519L22.8208 6.27022C22.4815 4.57568 21.8502 3.48369 20.9288 2.99424C20.0055 2.5048 18.3027 2.26008 15.8164 2.26008Z" fill="white"/>
<path d="M41.7632 19.4993V35.2376C41.7632 35.9656 41.938 36.5394 42.2896 36.9568C42.6392 37.3764 43.1801 37.5841 43.9081 37.5841C44.6361 37.5841 45.4731 37.1933 46.417 36.4098L47.145 37.3805C44.9857 39.3506 42.8284 40.3336 40.6712 40.3336C38.1088 40.3336 36.5315 39.1326 35.9371 36.7327C34.5346 39.1326 32.472 40.3336 29.7471 40.3336C26.6459 40.3336 24.2851 39.33 22.6666 37.3188C21.0482 35.3096 20.24 32.7472 20.24 29.6316C20.24 26.5161 21.1099 23.9475 22.8497 21.9239C24.5895 19.9004 27.0223 18.8906 30.1522 18.8906C32.5522 18.8906 34.4009 19.8489 35.6945 21.7635V19.4973H41.7632V19.4993ZM27.6433 23.4642C26.8865 24.9758 26.5102 27.024 26.5102 29.6131C26.5102 32.2023 26.8865 34.2526 27.6433 35.7641C28.3981 37.2756 29.5518 38.0303 31.1023 38.0303C32.6529 38.0303 33.8395 37.2674 34.6621 35.7435C35.4847 34.2197 35.896 32.1776 35.896 29.6131C35.896 27.0487 35.4847 25.0087 34.6621 23.4828C33.8395 21.9589 32.6529 21.1959 31.1023 21.1959C29.5518 21.1959 28.3981 21.9507 27.6433 23.4622V23.4642Z" fill="white"/>
<path d="M50.3778 22.8188C49.73 21.8214 49.4071 20.931 49.4071 20.1495C49.4071 19.3681 49.7094 18.673 50.3182 18.0663C50.9248 17.4596 51.659 17.1553 52.5227 17.1553C53.3864 17.1553 54.1206 17.4576 54.7273 18.0663C55.3339 18.673 55.6383 19.3948 55.6383 20.2318C55.6383 21.0688 55.2188 21.9572 54.3838 22.9011C56.5946 24.5195 58.2953 26.1051 59.4818 27.6557C60.6684 29.2063 61.2628 30.9995 61.2628 33.0355C61.2628 35.0714 60.4936 36.7988 58.9574 38.2137C57.4192 39.6306 55.2352 40.338 52.4034 40.338C51.1099 40.338 49.8081 40.0542 48.5002 39.4887C47.1923 38.9211 46.2011 38.2219 45.5265 37.3849L46.4561 36.4143C47.6427 37.3582 48.9239 37.8312 50.2996 37.8312C51.6754 37.8312 52.8024 37.461 53.6785 36.7186C54.5545 35.9762 54.9925 34.8246 54.9925 33.2596C54.9925 30.7774 54.0754 28.1883 52.241 25.4923L46.1312 33.1383L45.1194 32.2478C47.1697 28.9307 48.9218 25.7884 50.3799 22.8209L50.3778 22.8188Z" fill="white"/>
<path d="M69.6202 11.2471V21.6447C70.5641 20.6205 71.5821 19.9049 72.6741 19.4998C73.7661 19.0967 75.1563 18.8931 76.8405 18.8931C78.5248 18.8931 79.9026 19.4257 80.9679 20.491C82.0332 21.5562 82.5658 23.0061 82.5658 24.8404V35.238C82.5658 35.966 82.7406 36.5398 83.0922 36.9573C83.4418 37.3768 83.9827 37.5845 84.7107 37.5845C85.4387 37.5845 86.2757 37.1937 87.2196 36.4102L87.9476 37.3809C85.7904 39.351 83.631 40.334 81.4738 40.334C78.1567 40.334 76.4971 38.3515 76.4971 34.3866V23.9891C76.4971 23.1541 76.24 22.5063 75.728 22.0477C75.2159 21.5891 74.5002 21.3609 73.5831 21.3609C72.6659 21.3609 71.7754 21.7393 70.9137 22.494C70.05 23.2487 69.6182 24.2338 69.6182 25.4471V39.7294H63.5495V10.7206C62.0647 11.099 60.9336 11.7591 60.1501 12.7031L59.0581 11.4486C59.8396 10.6404 60.8308 9.99262 62.0318 9.50729C63.2328 9.02196 64.4194 8.7793 65.5916 8.7793C66.7638 8.7793 67.7303 9.01579 68.485 9.48673C69.2398 9.95972 69.6182 10.5458 69.6182 11.2471H69.6202Z" fill="white"/>
<path d="M91.6822 18.893C94.2178 18.893 95.4846 19.985 95.4846 22.171V35.24C95.4846 35.968 95.6594 36.5417 96.0111 36.9592C96.3607 37.3787 96.9015 37.5864 97.6295 37.5864C98.3575 37.5864 99.1945 37.1957 100.138 36.4122L100.866 37.3828C98.7092 39.3529 96.5499 40.3359 94.3926 40.3359C91.0755 40.3359 89.4159 38.3535 89.4159 34.3886V20.8343C87.9332 21.2127 86.8001 21.8728 86.0166 22.8167L84.9246 21.5623C85.706 20.752 86.6973 20.1063 87.8982 19.621C89.0992 19.1356 90.3599 18.893 91.6822 18.893ZM90.1645 14.9075C89.5311 14.2741 89.2144 13.5112 89.2144 12.6207C89.2144 11.7302 89.5311 10.9693 90.1645 10.3339C90.7979 9.70049 91.5608 9.38379 92.4513 9.38379C93.3418 9.38379 94.1027 9.70049 94.7381 10.3339C95.3715 10.9693 95.6882 11.7302 95.6882 12.6207C95.6882 13.5112 95.3715 14.2741 94.7381 14.9075C94.1047 15.543 93.3418 15.8576 92.4513 15.8576C91.5608 15.8576 90.7999 15.5409 90.1645 14.9075Z" fill="white"/>
<path d="M103.33 37.2426C101.348 35.1799 100.356 32.6381 100.356 29.6151C100.356 26.5921 101.348 24.0523 103.33 21.9876C105.313 19.9249 107.896 18.8926 111.077 18.8926C114.258 18.8926 116.843 19.9229 118.826 21.9876C120.808 24.0502 121.799 26.5941 121.799 29.6151C121.799 32.6361 120.808 35.1779 118.826 37.2426C116.843 39.3052 114.26 40.3376 111.077 40.3376C107.893 40.3376 105.311 39.3052 103.33 37.2426ZM107.76 23.1228C107.003 24.8091 106.627 26.9725 106.627 29.6171C106.627 32.2618 107.003 34.4252 107.76 36.1115C108.515 37.7978 109.633 38.6389 111.118 38.6389C112.603 38.6389 113.722 37.7958 114.476 36.1115C115.231 34.4252 115.609 32.2618 115.609 29.6171C115.609 26.9725 115.231 24.8091 114.476 23.1228C113.722 21.4364 112.601 20.5933 111.118 20.5933C109.635 20.5933 108.515 21.4364 107.76 23.1228Z" fill="white"/>
<path d="M125.604 19.4992C127.817 19.4992 129.812 20.1738 131.592 21.5228C132.617 20.5522 133.669 19.8715 134.747 19.4787C135.825 19.0879 137.209 18.8926 138.895 18.8926C140.581 18.8926 141.957 19.4252 143.022 20.4905C144.088 21.5557 144.62 23.0055 144.62 24.8399V35.2375C144.62 35.9655 144.795 36.5393 145.147 36.9567C145.496 37.3763 146.037 37.584 146.765 37.584C147.493 37.584 148.33 37.1932 149.274 36.4097L150.002 37.3804C147.843 39.3505 145.686 40.3335 143.528 40.3335C140.211 40.3335 138.552 38.351 138.552 34.3861V23.9885C138.552 23.1536 138.295 22.5058 137.782 22.0472C137.27 21.5886 136.561 21.3604 135.658 21.3604C134.755 21.3604 133.865 21.7244 132.989 22.4524C132.113 23.1803 131.675 24.1263 131.675 25.2841V39.7289H125.606V21.1177C124.393 21.1177 123.313 21.3192 122.369 21.7244L121.802 20.2272C122.961 19.7419 124.228 19.4992 125.604 19.4992Z" fill="white"/>
<path d="M34.7628 46.2217H0V49.9892H34.7628V46.2217Z" fill="white"/>
</g>
</svg>
